<?xml version="1.0" encoding="UTF-8"?>
<svg version="1.1" viewBox="0 0 1024 1024" width="1280" height="1280" xmlns="http://www.w3.org/2000/svg">
<path transform="translate(527,344)" d="m0 0h13l8 3 5 6-1 7-11 17-29 43-15 22-3 5 8-4 10-7 12-8 19-14 14-11 28-21 17-13 16-12 12-7 11-4 4-1h10l8 3 8 7 3 6-1 6-11 11-19 13-15 11-25 17-10 7-15 10-23 14-28 17-15 10-12 9-5 5-1 2 1 10 7 20 13 29 11 27 9 20 4-2 13-19 12-17 15-22 16-23 20-28 14-19 11-15 14-19 10-13 8-10 13-16 11-14 13-16 8-10 8-7 8-3h16l11 4 6 8 1 4-1 16-8 68-9 63-1 2 15-4 19-4h3l2-6 12-28 13-29 21-49 11-24 7-9 8-7 10-4 12-2 11 1 6 4 4 5 3 8 2 23 2 39 1 53 24-5 55-11 7-1h16l6 3 6 7v21l-4 5-10 4-45 8-52 9 1 30 3 32 6 52v23l-4 8-5 5-8 3-16 2h-10l-5-5-3-7-3-18-2-20-2-60v-38l-13 3-33 6-9 29-7 25-8 30-12 41-4 8-5 4-9 2h-9l-10-3-6-7-1-8 5-21 16-54 11-37-26 5-2 1-12 77-3 19-4 12-9 10-7 3-4 1h-22l-5-4-4-11v-22l4-24 11-43 3-9-12 3-45 9-37 6-1 5-15 28-12 22-16 30-7 9-7 6-4 2h-21l-8-4-5-6-7-19-11-34-16-50-13-40-2-9-2 1-8 16-14 29-11 26-16 36-11 27-7 11-8 7-13 4h-20l-5-2-4-5v-8l3-10 16-35 9-20 8-16 10-19 8-16 13-25 12-22 15-26 17-28 28-42 7-11 11-16 10-13 5-5 8-6 8-3zm334 53-10 29-18 51-6 16 2 1 35-7 1-1v-35l-2-54zm-146 12-4 4-15 20-14 19-13 18-24 34-16 23-6 10 4 1 53-12 14-3 2-3 10-53 9-49 1-9z" fill="#FA2478"/>
<path transform="translate(268,345)" d="m0 0h21l6 3 2 3v6l-8 17-10 19-9 17-29 58-9 17-13 28-19 42-15 36-14 35-12 29-7 13-5 4-5 2h-14l-9-3-4-4-1-3v-15l5-61 5-66 3-30v-10l-10 25-24 56-18 43-18 45-5 9-9 10-8 5-12 3-13-2-10-6v-13l13-30 12-26 16-34 17-39 15-32 9-20 12-25 39-78 7-10 4-5 6-4 3-1h13l8 3 4 5 2 7v24l-5 46-3 36-1 42h2l18-36 11-23 16-32 10-19 21-42 7-11 8-7z" fill="#FA2478"/>
<path transform="translate(335,346)" d="m0 0h10l8 3 5 5 1 7-6 14-7 14-9 20-12 25-3 10-1 9 3 7 6 3h11l10-4 4-4h2l2-4 10-13 15-24 15-23 11-18 9-14 8-9 5-3 9-1 12 3 7 6 1 2-1 9-6 14-14 24-12 20-12 19-15 24-17 28-14 24-26 46-26 52-13 28-8 16-7 8-8 4-3 1h-20l-7-3-3-4v-9l5-12 12-21 14-24 10-17 21-35 13-22 5-12v-6l-2-2-5-1-12 1h-24l-10-4-7-8-3-10v-9l3-15 7-20 8-18 10-19 10-20 14-24 4-6 7-6z" fill="#FA2478"/>
</svg>
